<svg viewBox="0 0 20 20" fill="none" xmlns="http://www.w3.org/2000/svg">
<path fill-rule="evenodd" clip-rule="evenodd" d="M12.9244 7.06464C13.2173 7.35753 13.2173 7.83241 12.9244 8.1253L8.13238 12.9173C7.83949 13.2102 7.36461 13.2102 7.07172 12.9173C6.77883 12.6244 6.77883 12.1495 7.07172 11.8566L11.8637 7.06464C12.1566 6.77175 12.6315 6.77175 12.9244 7.06464Z" fill="currentColor"/>
<path fill-rule="evenodd" clip-rule="evenodd" d="M7.06952 7.06293C7.36242 6.77004 7.83729 6.77004 8.13018 7.06293L12.9302 11.8629C13.2231 12.1558 13.2231 12.6307 12.9302 12.9236C12.6373 13.2165 12.1624 13.2165 11.8695 12.9236L7.06952 8.12359C6.77663 7.8307 6.77663 7.35582 7.06952 7.06293Z" fill="currentColor"/>
<path fill-rule="evenodd" clip-rule="evenodd"
      d="M2.24329 2.24354C3.91107 0.575762 6.4899 0.000244141 10 0.000244141C13.5101 0.000244141 16.0889 0.575762 17.7567 2.24354C19.4245 3.91132 20 6.49015 20 10.0002C20 13.5103 19.4245 16.0892 17.7567 17.7569C16.0889 19.4247 13.5101 20.0002 10 20.0002C6.4899 20.0002 3.91107 19.4247 2.24329 17.7569C0.575518 16.0892 0 13.5103 0 10.0002C0 6.49015 0.575518 3.91132 2.24329 2.24354ZM3.30396 3.3042C2.08098 4.52717 1.5 6.57334 1.5 10.0002C1.5 13.4271 2.08098 15.4733 3.30396 16.6963C4.52693 17.9193 6.5731 18.5002 10 18.5002C13.4269 18.5002 15.4731 17.9193 16.696 16.6963C17.919 15.4733 18.5 13.4271 18.5 10.0002C18.5 6.57334 17.919 4.52717 16.696 3.3042C15.4731 2.08123 13.4269 1.50024 10 1.50024C6.5731 1.50024 4.52693 2.08123 3.30396 3.3042Z" fill="currentColor"/>
</svg>
