<svg width="20" height="20" viewBox="0 0 20 20" fill="none" xmlns="http://www.w3.org/2000/svg">
<path fill-rule="evenodd" clip-rule="evenodd" d="M14.0905 7.09693C14.3834 7.38982 14.3834 7.8647 14.0905 8.15759L9.34452 12.9036C9.05167 13.1964 8.57688 13.1965 8.28397 12.9037L5.90997 10.5307C5.61701 10.2379 5.61691 9.76299 5.90974 9.47004C6.20258 9.17708 6.67745 9.17698 6.9704 9.46982L8.81407 11.3127L13.0299 7.09693C13.3227 6.80403 13.7976 6.80403 14.0905 7.09693Z" fill="currentColor"/>
<path fill-rule="evenodd" clip-rule="evenodd"
      d="M2.24305 2.24354C3.91083 0.575762 6.48966 0.000244141 9.99976 0.000244141C13.5099 0.000244141 16.0887 0.575762 17.7565 2.24354C19.4242 3.91132 19.9998 6.49015 19.9998 10.0002C19.9998 13.5103 19.4242 16.0892 17.7565 17.7569C16.0887 19.4247 13.5099 20.0002 9.99976 20.0002C6.48966 20.0002 3.91083 19.4247 2.24305 17.7569C0.575274 16.0892 -0.000244141 13.5103 -0.000244141 10.0002C-0.000244141 6.49015 0.575274 3.91132 2.24305 2.24354ZM3.30371 3.3042C2.08074 4.52717 1.49976 6.57334 1.49976 10.0002C1.49976 13.4271 2.08074 15.4733 3.30371 16.6963C4.52668 17.9193 6.57285 18.5002 9.99976 18.5002C13.4267 18.5002 15.4728 17.9193 16.6958 16.6963C17.9188 15.4733 18.4998 13.4271 18.4998 10.0002C18.4998 6.57334 17.9188 4.52717 16.6958 3.3042C15.4728 2.08123 13.4267 1.50024 9.99976 1.50024C6.57285 1.50024 4.52668 2.08123 3.30371 3.3042Z" fill="currentColor"/>
</svg>
