<svg width="193" height="89" viewBox="0 0 193 89" fill="none" xmlns="http://www.w3.org/2000/svg">
<path d="M17.8341 88.3138C14.8954 88.3138 11.911 87.5848 9.16024 86.0527C0.549055 81.2517 -2.53775 70.3852 2.26333 61.774L27.2142 17.0152C33.0575 6.53595 43.7076 0.174382 55.7017 0.00352549C67.6845 -0.167331 78.5339 5.88101 84.679 16.1894L111.566 61.3354C116.612 69.8043 113.833 80.7562 105.364 85.8022C96.8953 90.8481 85.9434 88.0689 80.8974 79.6001L56.2541 38.2242L33.439 79.1558C30.1699 85.0105 24.0932 88.3138 17.8341 88.3138Z" fill="#53E88B"/>
<path d="M96.2227 88.3138C93.284 88.3138 90.2997 87.5848 87.5489 86.0527C78.9377 81.2517 75.8509 70.3852 80.652 61.774L105.603 17.0152C111.446 6.53595 122.096 0.174382 134.09 0.00352549C146.079 -0.167331 156.922 5.88101 163.068 16.1894L189.955 61.3354C195.001 69.8043 192.222 80.7562 183.753 85.8022C175.284 90.8481 164.332 88.0689 159.286 79.6001L134.643 38.2242L111.828 79.1558C108.559 85.0105 102.482 88.3138 96.2227 88.3138Z" fill="#53E88B"/>
</svg>
